<svg width="20" height="20" viewBox="0 0 20 20" fill="none" xmlns="http://www.w3.org/2000/svg">
<rect width="20" height="20" rx="1" fill="#031633"/>
<path d="M16.763 2.07488C16.8354 2.11968 16.8952 2.18223 16.9367 2.25661C16.9782 2.33098 17 2.41472 17 2.49988V17.4999C17 17.6325 16.9473 17.7597 16.8536 17.8534C16.7598 17.9472 16.6326 17.9999 16.5 17.9999H13.5C13.3674 17.9999 13.2402 17.9472 13.1464 17.8534C13.0527 17.7597 13 17.6325 13 17.4999V15.9999H12V17.4999C12 17.6325 11.9473 17.7597 11.8536 17.8534C11.7598 17.9472 11.6326 17.9999 11.5 17.9999H2.5C2.36739 17.9999 2.24021 17.9472 2.14645 17.8534C2.05268 17.7597 2 17.6325 2 17.4999V11.9999C2.00008 11.895 2.03315 11.7928 2.09452 11.7077C2.1559 11.6226 2.24248 11.559 2.342 11.5259L8 9.63988V6.49988C8 6.4071 8.02582 6.31616 8.07456 6.23721C8.12331 6.15827 8.19305 6.09445 8.276 6.05288L16.276 2.05288C16.3523 2.01469 16.4371 1.99666 16.5224 2.00051C16.6076 2.00436 16.6904 2.02996 16.763 2.07488ZM8 10.6939L3 12.3599V16.9999H8V10.6939ZM9 16.9999H11V15.4999C11 15.3673 11.0527 15.2401 11.1464 15.1463C11.2402 15.0526 11.3674 14.9999 11.5 14.9999H13.5C13.6326 14.9999 13.7598 15.0526 13.8536 15.1463C13.9473 15.2401 14 15.3673 14 15.4999V16.9999H16V3.30888L9 6.80888V16.9999Z" fill="white"/>
<path d="M4 13H5V14H4V13ZM6 13H7V14H6V13ZM4 15H5V16H4V15ZM6 15H7V16H6V15ZM10 11H11V12H10V11ZM12 11H13V12H12V11ZM10 13H11V14H10V13ZM12 13H13V14H12V13ZM14 11H15V12H14V11ZM14 13H15V14H14V13ZM10 9H11V10H10V9ZM12 9H13V10H12V9ZM14 9H15V10H14V9ZM10 7H11V8H10V7ZM12 7H13V8H12V7ZM14 7H15V8H14V7ZM14 5H15V6H14V5Z" fill="white"/>
</svg>
